<?xml version="1.0" encoding="UTF-8" standalone="no"?>
<!DOCTYPE svg PUBLIC "-//W3C//DTD SVG 1.1//EN" "http://www.w3.org/Graphics/SVG/1.1/DTD/svg11.dtd">
<svg width="100%" height="100%" viewBox="0 0 826 353" version="1.1" xmlns="http://www.w3.org/2000/svg" xmlns:xlink="http://www.w3.org/1999/xlink" xml:space="preserve" xmlns:serif="http://www.serif.com/" style="fill-rule:evenodd;clip-rule:evenodd;stroke-linejoin:round;stroke-miterlimit:2;">
    <g transform="matrix(0.494798,0,0,0.147704,0,0)">
        <rect id="Artboard1" x="0" y="0" width="1668" height="2388" style="fill:none;"/>
        <g>
            <clipPath id="_clip1">
                <rect x="0" y="0" width="1668" height="2388"/>
            </clipPath>
            <g clip-path="url(#_clip1)">
                <g transform="matrix(3.89235,-2.13676e-17,-6.37853e-18,13.0391,-1681.5,-4915.75)">
                    <g>
                        <circle cx="499.5" cy="444.5" r="67.5" style="fill:white;"/>
                    </g>
                </g>
                <g transform="matrix(3.70301,0,0,12.4048,-3298.73,-11230.8)">
                    <g>
                        <circle cx="961.813" cy="976.345" r="67.711" style="fill:url(#_Linear2);"/>
                    </g>
                </g>
                <g transform="matrix(2.85817,9.57467,-2.85817,9.57467,243.19,-4490.3)">
                    <g>
                        <path d="M259.706,271.115C260.331,278.21 280.967,278.136 281.076,271.013C281.378,251.245 286.362,222.905 282.8,222.922C279.238,222.939 257.88,250.367 259.706,271.115Z" style="fill:white;"/>
                    </g>
                </g>
                <g transform="matrix(-2.85817,9.57467,-2.85817,-9.57467,1867.24,820.899)">
                    <g>
                        <path d="M259.706,271.115C260.331,278.21 280.967,278.136 281.076,271.013C281.378,251.245 286.362,222.905 282.8,222.922C279.238,222.939 257.88,250.367 259.706,271.115Z" style="fill:white;"/>
                    </g>
                </g>
                <g transform="matrix(-2.85817,-9.57467,2.85817,-9.57467,279.517,6256.18)">
                    <g>
                        <path d="M259.706,271.115C260.331,278.21 280.967,278.136 281.076,271.013C281.378,251.245 286.362,222.905 282.8,222.922C279.238,222.939 257.88,250.367 259.706,271.115Z" style="fill:white;"/>
                    </g>
                </g>
                <g transform="matrix(2.85817,-9.57467,2.85817,9.57467,-1345.46,942.815)">
                    <g>
                        <path d="M259.706,271.115C260.331,278.21 280.967,278.136 281.076,271.013C281.378,251.245 286.362,222.905 282.8,222.922C279.238,222.939 257.88,250.367 259.706,271.115Z" style="fill:white;"/>
                    </g>
                </g>
                <g transform="matrix(-3.90432,3.50457,-1.04616,-13.0793,3469.32,4739.22)">
                    <g>
                        <path d="M683.272,453.281C682.994,453.281 686.667,451.129 693.07,448.769C698.09,446.919 704.383,445.905 704.383,445.905C704.383,445.905 691.274,425.086 688.903,424.79C686.104,424.439 683.219,431.306 682.781,436.073C682.067,443.836 682.667,448.261 683.272,453.281Z" style="fill:white;"/>
                    </g>
                </g>
                <g transform="matrix(-1.04616,-13.0793,3.90432,-3.50457,-892.663,11620.2)">
                    <g>
                        <path d="M683.272,453.281C682.994,453.281 686.667,451.129 693.07,448.769C698.09,446.919 704.383,445.905 704.383,445.905C704.383,445.905 691.274,425.086 688.903,424.79C686.104,424.439 683.219,431.306 682.781,436.073C682.067,443.836 682.667,448.261 683.272,453.281Z" style="fill:white;"/>
                    </g>
                </g>
                <g transform="matrix(3.90432,-3.50457,1.04616,13.0793,-2945.86,-2970.98)">
                    <g>
                        <path d="M683.272,453.281C682.994,453.281 686.667,451.129 693.07,448.769C698.09,446.919 704.383,445.905 704.383,445.905C704.383,445.905 691.274,425.086 688.903,424.79C686.104,424.439 683.219,431.306 682.781,436.073C682.067,443.836 682.667,448.261 683.272,453.281Z" style="fill:white;"/>
                    </g>
                </g>
                <g transform="matrix(1.04616,13.0793,-3.90432,3.50457,1412.43,-9851.2)">
                    <g>
                        <path d="M683.272,453.281C682.994,453.281 686.667,451.129 693.07,448.769C698.09,446.919 704.383,445.905 704.383,445.905C704.383,445.905 691.274,425.086 688.903,424.79C686.104,424.439 683.219,431.306 682.781,436.073C682.067,443.836 682.667,448.261 683.272,453.281Z" style="fill:white;"/>
                    </g>
                </g>
                <g transform="matrix(2.02103,0,0,5.53748,-7.16214,-0.159221)">
                    <rect x="316.37" y="55.33" width="13.056" height="85.682" style="fill:rgb(0,7,229);"/>
                    <path d="M357.65,79.978C363.666,74.814 369.826,72.232 376.13,72.232C382.434,72.232 386.994,74.129 389.81,77.924C392.626,81.719 394.034,86.942 394.034,93.593L394.034,141.012L381.17,141.012L381.17,95.237C381.17,91.246 380.578,88.429 379.394,86.786C378.21,85.143 376.146,84.321 373.202,84.321C368.594,84.321 364.306,86.082 360.338,89.603L360.338,141.012L347.474,141.012L347.474,73.875L353.522,73.875L357.65,79.978Z" style="fill:rgb(0,7,229);fill-rule:nonzero;"/>
                    <path d="M402.962,84.086L402.962,73.875L411.794,73.875L411.794,61.668L424.658,57.677L424.658,73.875L435.122,73.875L435.122,84.086L424.658,84.086L424.658,121.998C424.658,125.362 425.058,127.749 425.858,129.157C426.658,130.566 427.842,131.27 429.41,131.27C430.978,131.27 432.69,130.957 434.546,130.331L436.178,140.073C432.402,141.795 429.026,142.655 426.05,142.655C423.074,142.655 420.69,142.225 418.898,141.364C417.106,140.503 415.762,139.506 414.866,138.371C413.97,137.237 413.298,135.691 412.85,133.735C412.146,130.996 411.794,127.592 411.794,123.524L411.794,84.086L402.962,84.086Z" style="fill:rgb(0,7,229);fill-rule:nonzero;"/>
                    <path d="M464.69,142.655C455.858,142.655 449.554,139.741 445.778,133.911C442.002,128.082 440.114,119.259 440.114,107.443C440.114,83.969 448.178,72.232 464.306,72.232C473.586,72.232 479.922,75.753 483.314,82.795C486.258,88.82 487.73,96.645 487.73,106.27L487.73,110.495L452.594,110.495C452.658,117.851 453.65,123.034 455.57,126.047C457.49,129.06 460.658,130.566 465.074,130.566C472.178,130.566 475.954,127.436 476.402,121.176L486.962,121.646C485.938,135.652 478.514,142.655 464.69,142.655ZM472.082,88.194C470.482,85.612 467.858,84.321 464.21,84.321C460.562,84.321 457.89,85.553 456.194,88.018C454.498,90.483 453.394,94.415 452.882,99.814L475.058,99.814C474.674,94.572 473.682,90.698 472.082,88.194Z" style="fill:rgb(0,7,229);fill-rule:nonzero;"/>
                    <path d="M512.594,141.012L499.73,141.012L499.73,73.875L505.778,73.875L510.866,84.321C515.282,76.653 521.522,72.623 529.586,72.232L529.586,85.729C522.034,85.964 516.37,88.781 512.594,94.18L512.594,141.012Z" style="fill:rgb(0,7,229);fill-rule:nonzero;"/>
                    <path d="M556.85,141.012L544.754,141.012L530.642,73.875L543.602,73.875L551.666,119.885L560.69,79.743L571.538,79.743L580.562,119.885L588.722,73.875L601.682,73.875L587.666,141.012L575.474,141.012L566.162,100.401L556.85,141.012Z" style="fill:white;fill-rule:nonzero;"/>
                    <path d="M621.362,124.697C623.026,128.61 626.226,130.566 630.962,130.566C635.698,130.566 638.898,128.61 640.562,124.697C642.226,120.785 643.058,115.034 643.058,107.443C643.058,99.853 642.226,94.102 640.562,90.19C638.898,86.277 635.698,84.321 630.962,84.321C626.226,84.321 623.026,86.277 621.362,90.19C619.698,94.102 618.866,99.853 618.866,107.443C618.866,115.034 619.698,120.785 621.362,124.697ZM655.922,107.443C655.922,130.918 647.602,142.655 630.962,142.655C614.322,142.655 606.002,130.918 606.002,107.443C606.002,83.969 614.322,72.232 630.962,72.232C647.602,72.232 655.922,83.969 655.922,107.443Z" style="fill:white;fill-rule:nonzero;"/>
                    <path d="M692.69,141.012L678.386,141.012L659.762,73.875L672.722,73.875L685.49,122.467L698.354,73.875L711.314,73.875L692.69,141.012Z" style="fill:white;fill-rule:nonzero;"/>
                    <path d="M739.73,142.655C730.898,142.655 724.594,139.741 720.818,133.911C717.042,128.082 715.154,119.259 715.154,107.443C715.154,83.969 723.218,72.232 739.346,72.232C748.626,72.232 754.962,75.753 758.354,82.795C761.298,88.82 762.77,96.645 762.77,106.27L762.77,110.495L727.634,110.495C727.698,117.851 728.69,123.034 730.61,126.047C732.53,129.06 735.698,130.566 740.114,130.566C747.218,130.566 750.994,127.436 751.442,121.176L762.002,121.646C760.978,135.652 753.554,142.655 739.73,142.655ZM747.122,88.194C745.522,85.612 742.898,84.321 739.25,84.321C735.602,84.321 732.93,85.553 731.234,88.018C729.538,90.483 728.434,94.415 727.922,99.814L750.098,99.814C749.714,94.572 748.722,90.698 747.122,88.194Z" style="fill:white;fill-rule:nonzero;"/>
                    <path d="M784.946,79.978C790.962,74.814 797.122,72.232 803.426,72.232C809.73,72.232 814.29,74.129 817.106,77.924C819.922,81.719 821.33,86.942 821.33,93.593L821.33,141.012L808.466,141.012L808.466,95.237C808.466,91.246 807.874,88.429 806.69,86.786C805.506,85.143 803.442,84.321 800.498,84.321C795.89,84.321 791.602,86.082 787.634,89.603L787.634,141.012L774.77,141.012L774.77,73.875L780.818,73.875L784.946,79.978Z" style="fill:white;fill-rule:nonzero;"/>
                    <path d="M342.77,209.675C349.298,211.71 353.97,214.605 356.786,218.361C359.602,222.117 361.01,227.751 361.01,235.262C361.01,242.774 358.898,248.78 354.674,253.279C350.45,257.779 344.242,260.028 336.05,260.028C327.858,260.028 321.938,257.896 318.29,253.631C314.642,249.367 312.402,243.166 311.57,235.028L322.034,233.032C322.418,237.649 323.714,241.229 325.922,243.772C328.13,246.315 331.218,247.587 335.186,247.587C343.698,247.587 347.954,243.635 347.954,235.732C347.954,232.367 347.154,229.824 345.554,228.103C343.954,226.381 340.882,224.816 336.338,223.408L330.866,221.765C324.466,219.808 319.89,216.913 317.138,213.079C314.386,209.245 313.01,203.513 313.01,195.884C313.01,188.255 315.026,182.21 319.058,177.75C323.09,173.29 329.058,171.06 336.962,171.06C344.866,171.06 350.562,173.192 354.05,177.456C357.538,181.721 359.698,187.922 360.53,196.06L350.162,198.055C349.33,188.352 345.234,183.501 337.874,183.501C333.842,183.501 330.866,184.577 328.946,186.729C327.026,188.881 326.066,191.717 326.066,195.238C326.066,198.76 326.802,201.381 328.274,203.102C329.746,204.824 332.562,206.35 336.722,207.68L342.77,209.675Z" style="fill:white;fill-rule:nonzero;"/>
                    <path d="M384.05,242.07C385.714,245.983 388.914,247.939 393.65,247.939C398.386,247.939 401.586,245.983 403.25,242.07C404.914,238.158 405.746,232.406 405.746,224.816C405.746,217.226 404.914,211.475 403.25,207.562C401.586,203.65 398.386,201.694 393.65,201.694C388.914,201.694 385.714,203.65 384.05,207.562C382.386,211.475 381.554,217.226 381.554,224.816C381.554,232.406 382.386,238.158 384.05,242.07ZM418.61,224.816C418.61,248.291 410.29,260.028 393.65,260.028C377.01,260.028 368.69,248.291 368.69,224.816C368.69,201.342 377.01,189.604 393.65,189.604C410.29,189.604 418.61,201.342 418.61,224.816Z" style="fill:white;fill-rule:nonzero;"/>
                    <path d="M443.954,258.385L431.09,258.385L431.09,170.121L443.954,168.008L443.954,258.385Z" style="fill:white;fill-rule:nonzero;"/>
                    <path d="M477.938,260.028C466.674,260.028 461.042,252.908 461.042,238.666L461.042,191.248L473.906,191.248L473.906,236.084C473.906,240.153 474.562,243.146 475.874,245.063C477.186,246.98 479.378,247.939 482.45,247.939C486.802,247.939 490.93,245.435 494.834,240.427L494.834,191.248L507.698,191.248L507.698,258.385L499.346,258.385L495.698,250.286C490.706,256.781 484.786,260.028 477.938,260.028Z" style="fill:white;fill-rule:nonzero;"/>
                    <path d="M517.586,201.459L517.586,191.248L526.418,191.248L526.418,179.041L539.282,175.05L539.282,191.248L549.746,191.248L549.746,201.459L539.282,201.459L539.282,239.371C539.282,242.735 539.682,245.122 540.482,246.53C541.282,247.939 542.466,248.643 544.034,248.643C545.602,248.643 547.314,248.33 549.17,247.704L550.802,257.446C547.026,259.167 543.65,260.028 540.674,260.028C537.698,260.028 535.314,259.598 533.522,258.737C531.73,257.876 530.386,256.879 529.49,255.744C528.594,254.609 527.922,253.064 527.474,251.108C526.77,248.369 526.418,244.965 526.418,240.896L526.418,201.459L517.586,201.459Z" style="fill:white;fill-rule:nonzero;"/>
                    <path d="M560.306,191.248L573.17,191.248L573.17,258.385L560.306,258.385L560.306,191.248ZM566.738,183.266C561.938,183.266 559.538,180.234 559.538,174.17C559.538,168.106 561.938,165.074 566.738,165.074C571.666,165.074 574.13,168.106 574.13,174.17C574.13,180.234 571.666,183.266 566.738,183.266Z" style="fill:white;fill-rule:nonzero;"/>
                    <path d="M601.01,242.07C602.674,245.983 605.874,247.939 610.61,247.939C615.346,247.939 618.546,245.983 620.21,242.07C621.874,238.158 622.706,232.406 622.706,224.816C622.706,217.226 621.874,211.475 620.21,207.562C618.546,203.65 615.346,201.694 610.61,201.694C605.874,201.694 602.674,203.65 601.01,207.562C599.346,211.475 598.514,217.226 598.514,224.816C598.514,232.406 599.346,238.158 601.01,242.07ZM635.57,224.816C635.57,248.291 627.25,260.028 610.61,260.028C593.97,260.028 585.65,248.291 585.65,224.816C585.65,201.342 593.97,189.604 610.61,189.604C627.25,189.604 635.57,201.342 635.57,224.816Z" style="fill:white;fill-rule:nonzero;"/>
                    <path d="M658.226,197.351C664.242,192.187 670.402,189.604 676.706,189.604C683.01,189.604 687.57,191.502 690.386,195.297C693.202,199.092 694.61,204.315 694.61,210.966L694.61,258.385L681.746,258.385L681.746,212.61C681.746,208.619 681.154,205.802 679.97,204.159C678.786,202.515 676.722,201.694 673.778,201.694C669.17,201.694 664.882,203.454 660.914,206.976L660.914,258.385L648.05,258.385L648.05,191.248L654.098,191.248L658.226,197.351Z" style="fill:white;fill-rule:nonzero;"/>
                    <path d="M750.962,239.605C750.962,252.986 743.282,259.676 727.922,259.676C721.202,259.676 716.21,257.896 712.946,254.336C709.682,250.775 707.634,245.591 706.802,238.784L716.786,236.906C717.49,244.418 721.314,248.173 728.258,248.173C735.202,248.173 738.674,245.513 738.674,240.192C738.674,238.001 737.986,236.358 736.61,235.262C735.234,234.167 732.466,233.032 728.306,231.859L723.89,230.568C718.194,228.924 714.114,226.518 711.65,223.349C709.186,220.18 707.954,215.583 707.954,209.558C707.954,196.256 715.378,189.604 730.226,189.604C736.626,189.604 741.41,191.385 744.578,194.945C747.746,198.505 749.714,203.689 750.482,210.497L740.498,212.257C739.794,204.824 736.258,201.107 729.89,201.107C723.522,201.107 720.338,203.767 720.338,209.088C720.338,211.279 720.962,212.942 722.21,214.077C723.458,215.211 726.002,216.326 729.842,217.422L734.834,218.948C740.53,220.669 744.642,223.075 747.17,226.166C749.698,229.257 750.962,233.737 750.962,239.605Z" style="fill:white;fill-rule:nonzero;"/>
                </g>
            </g>
        </g>
    </g>
    <defs>
        <linearGradient id="_Linear2" x1="0" y1="0" x2="1" y2="0" gradientUnits="userSpaceOnUse" gradientTransform="matrix(128.719,-4.02574,4.02574,128.719,897.772,972.613)"><stop offset="0" style="stop-color:rgb(0,3,196);stop-opacity:1"/><stop offset="1" style="stop-color:rgb(0,29,116);stop-opacity:1"/></linearGradient>
    </defs>
</svg>
